<?xml version="1.0" encoding="utf-8"?>
<!-- Generator: Adobe Illustrator 25.2.3, SVG Export Plug-In . SVG Version: 6.00 Build 0)  -->
<svg version="1.1" id="Capa_1" xmlns="http://www.w3.org/2000/svg" xmlns:xlink="http://www.w3.org/1999/xlink" x="0px" y="0px"
	 viewBox="0 0 960 960" style="enable-background:new 0 0 960 960;" xml:space="preserve">
<style type="text/css">
	.st0{fill-rule:evenodd;clip-rule:evenodd;fill:#B3B3B3;}
</style>
<polygon class="st0" points="203.8,493.45 184.39,493.44 184.39,507.68 164.29,507.67 164.29,455.01 174.68,455.01 174.68,448.34 
	134.84,448.34 134.83,455.01 145.05,455.01 145.05,507.93 134.83,507.93 134.83,513.82 203.8,513.82 203.8,493.45 "/>
<path class="st0" d="M263.85,448.53l-17.23,0l-26.64,59.48l-10.18,0l0,5.96l27.81,0l0-5.95l-8.22-0.01l5.09-12.48l29.37,0
	l5.49,12.49l-10.18,0l-0.01,5.95l41.13,0l-0.01-5.95l-10.18,0L263.85,448.53L263.85,448.53z M237.21,488.98l12.14-28.55l11.36,28.55
	L237.21,488.98L237.21,488.98z"/>
<path class="st0" d="M470.8,448.53l-17.24,0l-26.63,59.48l-10.19,0.01l0,5.95l27.8,0l0-5.95l-8.22,0l5.09-12.49l29.38,0l5.48,12.49
	l-10.18,0l0,5.95l41.12,0l0-5.95l-10.18,0L470.8,448.53L470.8,448.53z M444.16,488.98l12.14-28.56l11.36,28.56L444.16,488.98
	L444.16,488.98z"/>
<path class="st0" d="M787.81,448.53h-17.24l-26.63,59.48l-10.18,0l0,5.95l27.8,0l0-5.95l-8.22,0l5.09-12.5l29.38,0l5.48,12.49
	l-8.62,0l-1.57,5.95l41.13,0l0.01-5.95l-10.19,0L787.81,448.53L787.81,448.53z M761.18,488.98l12.14-28.55l11.35,28.55
	L761.18,488.98L761.18,488.98z"/>
<path class="st0" d="M411.38,489.9l9.89,0l0-6.19l-39.16,0l0,6.49l9.89,0c-0.79,7.66-5.54,18.27-16.62,18.28
	c-18.58-0.01-20.17-18.28-20.18-29.19c0-11.79,1.59-26.54,18.59-26.53c11.08,0,15.83,7.66,17.41,15.04l20.18-0.01l0-19.16l-18.99,0
	l0.01,6.19c-5.14-7.07-17.81-8.55-22.16-8.26c-26.11,1.77-37.97,15.03-37.98,33.02c0,18.87,9.1,35.08,39.95,34.78
	c8.71,0,15.04-0.59,19.78-7.37l0,6.78l19.39,0L411.38,489.9L411.38,489.9z"/>
<path class="st0" d="M559.36,493.67c-2.37,8.54-7.12,14.73-16.22,14.73c-18.6,0-20.18-18.27-20.18-29.17
	c0-11.79,1.58-26.52,18.6-26.52c11.07,0,15.82,7.66,17.4,15.02l20.17,0.01l0-19.16l-18.99,0l0,6.19c-5.14-7.07-17.8-8.55-22.15-8.25
	c-26.1,1.77-37.98,15.02-37.98,33c0,18.87,9.1,35.07,39.96,34.77c20.18,0,36.39-9.14,36-20.63L559.36,493.67L559.36,493.67z"/>
<polygon class="st0" points="615.64,476.72 615.63,455.99 639.25,455.99 639.25,467.54 657.83,467.54 657.83,448.59 583.9,448.6 
	583.9,456 596.67,455.99 596.67,507.51 583.9,507.51 583.9,514.02 657.83,514.02 657.83,492.7 639.25,492.71 639.25,507.51 
	615.64,507.51 615.64,483.52 633.44,483.53 633.45,476.72 615.64,476.72 "/>
<path class="st0" d="M744.76,448.46l0,19.04l-15.57,0l0-11.57l-15.45-0.01c0,17.11,0,34.22,0,51.34l10.13-0.01l-0.01,6.51l-39.66,0
	l0-6.51h10.51v-51.45l-15.82,0l0,11.69l-15.57,0l0-19.04L744.76,448.46L744.76,448.46z"/>
</svg>
